{"accessors" : [{"bufferView" : 0, "byteOffset" : 0, "componentType" : 5123, "count" : 18960, "type" : "SCALAR", "max" : [16249], "min" : [0]}, {"bufferView" : 1, "byteOffset" : 0, "componentType" : 5126, "count" : 16250, "type" : "VEC3", "max" : [3.434000015258789, 3.1500000953674316, 2], "min" : [-3, 0, -2], "name" : "POSITION"}], "asset" : {"generator" : "Aspose.3D 24.1.0", "version" : "2.0"}, "buffers" : [{"uri" : "data:application/octet-stream;base64,", "byteLength" : 265448}], "bufferViews" : [{"buffer" : 0, "byteOffset" : 0, "byteLength" : 37920, "target" : 34963}, {"buffer" : 0, "byteOffset" : 37924, "byteLength" : 227520, "byteStride" : 12, "target" : 34962}], "meshes" : [{"primitives" : [{"attributes" : {"POSITION" : 1}, "indices" : 0, "mode" : 4}], "name" : ""}], "nodes" : [{"mesh" : 0, "name" : ""}], "scene" : 0, "scenes" : [{"nodes" : [0]}]}